<svg xmlns="http://www.w3.org/2000/svg" viewBox="0 0 1080 1920"><defs><linearGradient id="wall" x2="1" y2="1"><stop stop-color="#756370"/><stop offset="1" stop-color="#342d39"/></linearGradient><linearGradient id="table" x2="0" y2="1"><stop stop-color="#b99476"/><stop offset="1" stop-color="#7e5c48"/></linearGradient><filter id="blur"><feGaussianBlur stdDeviation="26"/></filter></defs><path fill="url(#wall)" d="M0 0h1080v1920H0z"/><path fill="#baa88f" opacity=".16" d="M700 0h150L0 1200V940zM940 0h140L0 1500v-230z"/><ellipse cx="240" cy="780" rx="250" ry="480" fill="#c1a892" opacity=".12" filter="url(#blur)"/><path fill="url(#table)" d="M0 1270 1080 1140V1920H0z"/><path d="M0 1610 1080 1460M0 1810l1080-146" stroke="#d8b08d" opacity=".2" stroke-width="3"/><path d="m40 1490 340-65 210 155-330 73z" fill="#e0d0b8"/><path d="m40 1490 220 127 330-37M258 1617v35" fill="none" stroke="#bbac93" stroke-width="5"/><path d="m725 1690 180-24" stroke="#352d30" stroke-width="12" stroke-linecap="round"/></svg>
